<?xml version="1.0" encoding="UTF-8" standalone="no"?>
<svg width="249px" height="36px" viewBox="0 0 249 36" version="1.1" xmlns="http://www.w3.org/2000/svg" xmlns:xlink="http://www.w3.org/1999/xlink">
    <!-- Generator: Sketch 3.8.3 (29802) - http://www.bohemiancoding.com/sketch -->
    <title>Group 2 Copy</title>
    <desc>Created with Sketch.</desc>
    <defs></defs>
    <g id="Mockup" stroke="none" stroke-width="1" fill="none" fill-rule="evenodd">
        <g id="Group-2-Copy">
            <path d="M24.7900311,25.5109368 C22.76387,25.5109368 20.8732253,24.7077739 19.4664193,23.249095 C19.1122051,22.8814793 19.1227183,22.2965521 19.4901029,21.9419912 C19.8577187,21.5875459 20.4425304,21.5984057 20.7969757,21.9656748 C21.8521091,23.0598573 23.2703525,23.6624605 24.7900311,23.6624605 C27.8487972,23.6624605 30.3371929,21.1741804 30.3371929,18.1154142 C30.3371929,15.0568792 27.8487972,12.5684835 24.7900311,12.5684835 C20.9059203,12.5684835 19.267015,17.0176504 18.8571154,18.3813638 C18.8378219,18.4459449 18.8118277,18.5062514 18.7805191,18.562861 C17.3474879,22.8383867 14.6053888,25.2798773 11.2102,25.2798773 C7.13223024,25.2798773 3.81456189,21.9622089 3.81456189,17.8843547 C3.81456189,13.8063849 7.13223024,10.4889477 11.2102,10.4889477 C13.1174809,10.4889477 14.9284101,11.2128572 16.3092218,12.5277015 C16.6789171,12.8798362 16.6932428,13.4646479 16.3412236,13.8345742 C15.9890889,14.2045005 15.4041616,14.2184796 15.0345819,13.866576 C13.9989731,12.8804139 12.6408051,12.3374239 11.2102,12.3374239 C8.15143385,12.3374239 5.66303818,14.8258196 5.66303818,17.8843547 C5.66303818,20.9431208 8.15143385,23.431401 11.2102,23.431401 C14.9507073,23.431401 16.6064799,19.362096 17.1446176,17.6127442 C17.1625247,17.5545172 17.1860928,17.4994095 17.2138199,17.4476522 C18.6042207,13.2257323 21.4137891,10.7200072 24.7900311,10.7200072 C28.8680008,10.7200072 32.1856692,14.0374445 32.1856692,18.1154142 C32.1856692,22.1932685 28.8680008,25.5109368 24.7900311,25.5109368 M18.0001155,0 C8.05889451,0 0,8.05877898 0,17.9998845 C0,27.9411055 8.05889451,36 18.0001155,36 C27.9411055,36 36.0002311,27.9411055 36.0002311,17.9998845 C36.0002311,8.05877898 27.9411055,0 18.0001155,0" id="Fill-1-Copy" fill="#CD2323"></path>
        </g>
    </g>
</svg>